<svg width="771" height="68" viewBox="0 0 771 68" fill="none" xmlns="http://www.w3.org/2000/svg">
<g clip-path="url(#clip0_146_225)">
<path d="M288 68C283.553 68 280.301 67.2119 276.572 65.6357C272.843 64.0252 269.833 61.6437 267.541 58.4913C265.283 55.3389 264.103 50.7286 264 46H274C274 48.844 274.228 51.8438 275.597 53.6599C276.999 55.4759 278.847 56.8294 281.139 57.7203C283.431 58.577 285.229 59 288 59C290.805 59 294.018 58.577 296.174 57.7203C298.329 56.8637 299.988 55.7158 301.151 54.2766C302.348 52.8375 302.947 51.1927 302.947 49.3424C302.947 46.841 302.177 44.8365 300.638 43.3288C299.098 41.7868 296.755 40.4848 293.608 39.4225L281.447 34.8995C276.213 32.9463 272.227 30.7019 269.491 28.1663C266.754 25.5964 265.385 22.0328 265.385 17.4754C265.385 12.3013 267.404 8.10381 271.44 4.88284C275.477 1.62761 280.679 0 288 0C294.944 0 300.809 1.61048 304.64 4.83144C308.506 8.0524 310.453 12.449 311 18H301C300.521 15.1902 299.868 12.9524 297.713 11.3076C295.592 9.66289 292.037 8.5 288 8.5C284.1 8.5 281.532 9.69715 279.343 11.4104C277.153 13.0894 276.059 15.2139 276.059 17.7838C276.059 19.9083 276.743 21.6044 278.111 22.8723C279.514 24.1401 281.686 25.288 284.628 26.3159L298.483 31.4044C303.238 33.0834 306.949 35.3449 309.618 38.189C312.286 41.033 313.62 44.648 313.62 49.034C313.62 52.7347 312.662 56.0071 310.747 58.8511C308.831 61.6951 306.026 63.9395 302.331 65.5843C298.637 67.1948 293.302 68 288 68Z" fill="#FEFEFE"/>
<path d="M367.054 68C361.273 68 356.278 66.5951 352.071 63.7853C347.897 60.9413 344.664 56.9493 342.372 51.8095C340.08 46.6354 339 40.5704 339 33.6145C339 26.2817 340.149 20.131 342.578 15.1625C345.007 10.1597 348.342 6.39053 352.584 3.85488C356.86 1.28496 361.683 0 367.054 0C374.272 0 380.019 1.79894 384.295 5.39683C388.572 8.96044 391.411 13.6034 392.814 19.3258L382.397 21.3303C381.165 17.5268 379.215 14.4943 376.547 12.2328C373.879 9.93701 370.715 8.78912 367.054 8.78912C363.839 8.78912 360.897 9.71429 358.228 11.5646C355.56 13.415 353.422 16.1905 351.814 19.8912C350.206 23.5576 349.5 28.132 349.5 33.6145C349.5 38.6858 350.069 43.1403 351.404 46.9781C352.738 50.7816 354.705 53.7455 357.305 55.87C359.905 57.9945 363.154 59.0567 367.054 59.0567C371.809 59.0567 375.555 57.7889 378.292 55.2532C381.029 52.6833 382 49.1119 382 45H393C393 49.7972 391.839 54.1224 389.683 57.5147C387.562 60.8728 384.569 63.4598 380.704 65.2759C376.838 67.092 372.288 68 367.054 68Z" fill="#FEFEFE"/>
<path d="M421 67V1H444.342C451.97 1 457.769 2.99823 461.737 6.63038C465.74 10.2283 467.741 14.974 467.741 20.8677C467.741 26.6929 465.74 31.4044 461.737 35.0023C457.769 38.6001 451.904 39.7022 444.275 39.7022L442 39.9091L438 40H432V67H421ZM457 67L441 39.9318L452 39L468 67H457ZM432 33H443.5C448.152 33 451.663 32.6037 454.091 30.3764C456.52 28.1149 457.735 25.2023 457.735 21.6387C457.735 17.9723 456.589 15.0597 454.297 12.901C452.039 10.708 448.721 9 444.342 9H432V33Z" fill="#FEFEFE"/>
<path d="M498 67V1H509V67H498Z" fill="#FEFEFE"/>
<path d="M542 1H557L578 44H576L596.367 1H611V67H600V12H603L580 58H574L550 12H553V67H542V1Z" fill="#FEFEFE"/>
<path d="M644 67V1H670C674.892 1 678.313 1.97027 681.529 3.54648C684.779 5.1227 687.207 7.2129 688.815 9.81708C690.423 12.4213 691.227 15.2824 691.227 18.4006C691.227 22.1355 690.184 25.3565 688.097 28.0635C686.044 30.7705 682.968 32.472 679 33.5C681.6 33.9455 683.957 35.0537 685.942 36.4928C687.926 37.8977 689.482 39.6453 690.611 41.7355C691.774 43.8256 692.356 46.1386 692.356 48.6742C692.356 50.833 691.979 52.9746 691.227 55.099C690.474 57.2235 689.226 59.1595 687.481 60.907C685.736 62.6546 683.393 64.0595 680.451 65.1217C677.509 66.1497 673.413 67 669 67H644ZM655 58H669C673.447 58 676.876 57.2064 678.86 55.356C680.879 53.5057 681.888 51.1071 681.888 48.1602C681.888 45.1791 680.827 42.7805 678.706 40.9645C676.585 39.1484 673.216 38 669.008 38H655V58ZM655 10V29H669.008C672.805 29 675.782 28.8516 677.937 27.0355C680.126 25.2194 681.221 22.7009 681.221 19.48C681.221 16.4303 680.16 14.0317 678.039 12.2842C675.953 10.5024 672.874 10 669.008 10H655Z" fill="#FEFEFE"/>
<path d="M715 67L737 1H749C757.477 26.7035 762.523 41.2965 771 67H760L755 51H731C729.047 57.2484 727.953 60.7516 726 67H715ZM734 43H752L743 13L734 43Z" fill="#FEFEFE"/>
<path d="M367.054 68C361.273 68 356.278 66.5951 352.071 63.7853C347.897 60.9413 344.664 56.9493 342.372 51.8095C340.08 46.6354 339 40.5704 339 33.6145C339 26.2817 340.149 20.131 342.578 15.1625C345.007 10.1597 348.342 6.39053 352.584 3.85488C356.86 1.28496 361.683 0 367.054 0C374.272 0 380.019 1.79894 384.295 5.39683C388.572 8.96044 391.411 13.6034 392.814 19.3258L382.397 21.3303C381.165 17.5268 379.215 14.4943 376.547 12.2328C373.879 9.93701 370.715 8.78912 367.054 8.78912C363.839 8.78912 360.897 9.71429 358.228 11.5646C355.56 13.415 353.422 16.1905 351.814 19.8912C350.206 23.5576 349.5 28.132 349.5 33.6145C349.5 38.6858 350.069 43.1403 351.404 46.9781C352.738 50.7816 354.705 53.7455 357.305 55.87C359.905 57.9945 363.154 59.0567 367.054 59.0567C371.809 59.0567 375.555 57.7889 378.292 55.2532C381.029 52.6833 382 49.1119 382 45H393C393 49.7972 391.839 54.1224 389.683 57.5147C387.562 60.8728 384.569 63.4598 380.704 65.2759C376.838 67.092 372.288 68 367.054 68Z" fill="#FEFEFE"/>
<path d="M33 34H0V67H33H66V34H99V1H66H33V34Z" fill="#FEFEFE"/>
<path d="M198 1H165V34H132V67H165H198V34V1Z" fill="#FEFEFE"/>
</g>
<defs>
<clipPath id="clip0_146_225">
<rect width="771" height="68" fill="white"/>
</clipPath>
</defs>
</svg>